<?xml version="1.0" encoding="UTF-8" standalone="no"?>
<svg
   xmlns:dc="http://purl.org/dc/elements/1.1/"
   xmlns:cc="http://creativecommons.org/ns#"
   xmlns:rdf="http://www.w3.org/1999/02/22-rdf-syntax-ns#"
   xmlns:svg="http://www.w3.org/2000/svg"
   xmlns="http://www.w3.org/2000/svg"
   xmlns:sodipodi="http://sodipodi.sourceforge.net/DTD/sodipodi-0.dtd"
   xmlns:inkscape="http://www.inkscape.org/namespaces/inkscape"
   version="1.0"
   width="600.000000pt"
   height="600.000000pt"
   viewBox="0 0 600.000000 600.000000"
   preserveAspectRatio="xMidYMid meet"
   id="svg62"
   sodipodi:docname="no_notifications2.svg"
   inkscape:version="1.0.1 (0767f8302a, 2020-10-17)">
  <metadata
     id="metadata68">
    <rdf:RDF>
      <cc:Work
         rdf:about="">
        <dc:format>image/svg+xml</dc:format>
        <dc:type
           rdf:resource="http://purl.org/dc/dcmitype/StillImage" />
        <dc:title></dc:title>
      </cc:Work>
    </rdf:RDF>
  </metadata>
  <defs
     id="defs66" />
  <sodipodi:namedview
     pagecolor="#ffffff"
     bordercolor="#666666"
     borderopacity="1"
     objecttolerance="10"
     gridtolerance="10"
     guidetolerance="10"
     inkscape:pageopacity="0"
     inkscape:pageshadow="2"
     inkscape:window-width="2560"
     inkscape:window-height="1376"
     id="namedview64"
     showgrid="false"
     inkscape:zoom="1.26"
     inkscape:cx="400"
     inkscape:cy="400"
     inkscape:window-x="0"
     inkscape:window-y="27"
     inkscape:window-maximized="1"
     inkscape:current-layer="svg62" />
  <g
     transform="translate(0.000000,600.000000) scale(0.100000,-0.100000)"
     fill="#000000"
     stroke="none"
     id="g60">
    <path
       d="M2851 5514 c-203 -54 -378 -237 -422 -438 -11 -50 -17 -60 -41 -68 -63 -22 -198 -93 -278 -146 -196 -131 -362 -335 -441 -547 -39 -105 -59 -190 -84 -362 -88 -598 -215 -935 -509 -1353 -138 -196 -238 -416 -282 -618 -25 -114 -22 -314 5 -415 23 -86 75 -193 121 -249 40 -48 151 -121 241 -158 192 -80 502 -133 910 -156 l116 -6 17 -38 c94 -214 327 -403 581 -471 114 -31 326 -31 440 0 248 67 449 223 570 444 31 57 41 67 63 67 15 0 90 5 167 10 688 50 1015 170 1136 420 58 119 73 194 73 350 -1 146 -14 222 -64 372 -48 143 -115 268 -255 477 -287 428 -405 747 -489 1323 -32 215 -61 321 -126 454 -127 263 -354 469 -649 589 l-54 22 -18 72 c-49 194 -190 345 -383 413 -70 24 -96 28 -186 27 -58 0 -129 -7 -159 -15z m304 -243 c33 -15 75 -40 93 -55 31 -27 89 -113 81 -121 -2 -2 -27 2 -54 8 -28 6 -148 11 -270 11 -122 0 -242 -5 -270 -11 -27 -6 -52 -10 -54 -8 -8 8 62 105 92 128 117 89 256 106 382 48z m135 -406 c263 -51 473 -155 625 -309 166 -168 241 -337 285 -642 87 -606 236 -1007 525 -1413 128 -181 209 -343 256 -511 18 -68 23 -111 24 -210 0 -135 -14 -197 -62 -275 -96 -155 -414 -237 -1068 -276 -252 -15 -1479 -15 -1745 0 -574 33 -897 103 -1019 223 -49 47 -89 140 -103 236 -16 108 1 240 47 378 49 147 95 233 249 462 292 436 428 814 511 1415 36 269 122 456 279 613 168 168 422 284 711 323 101 14 384 6 485 -14z m250 -3905 c-36 -50 -131 -136 -192 -173 -105 -63 -204 -90 -338 -91 -133 -1 -220 21 -330 81 -60 33 -220 178 -220 199 0 5 244 9 549 9 l549 0 -18 -25z"
       id="path58" />
  </g>
  <path
     style="fill:#ff7f2a;stroke-width:0.793651"
     d="m 308.33333,636.5172 c -81.65819,-2.02914 -139.05467,-12.52428 -158.05127,-28.9002 -5.93334,-5.1148 -11.12593,-14.78003 -14.32542,-26.66462 -2.13058,-7.91409 -1.89933,-27.88401 0.45034,-38.88889 4.46068,-20.89201 13.48857,-41.3522 28.36554,-64.28571 25.50948,-39.32399 29.5233,-46.11183 39.65638,-67.06349 18.67701,-38.61755 29.04658,-75.57241 37.63617,-134.12699 2.14273,-14.60679 5.03941,-27.33632 8.45065,-37.13657 15.96745,-45.87331 55.3792,-76.36666 113.76999,-88.02522 8.39036,-1.67526 11.17673,-1.82106 34.52381,-1.80649 27.54406,0.0172 34.13046,0.59984 49.60318,4.38806 42.54042,10.41527 73.27922,31.67227 92.82342,64.19078 8.59509,14.3009 13.38587,30.37112 18.70809,62.75452 8.34316,50.76448 15.93631,80.57595 28.24119,110.87774 10.29037,25.34086 19.17876,41.60421 39.16531,71.66194 16.14498,24.28038 22.3144,34.91748 28.07896,48.4127 8.6783,20.31649 11.237,31.89015 11.237,50.8278 0,18.75098 -2.44303,28.47942 -9.68375,38.56195 -13.28805,18.50328 -56.09146,29.07066 -139.5226,34.44559 -16.30678,1.05053 -174.4713,1.63827 -209.12699,0.7771 z"
     id="path70"
     transform="scale(0.75)" />
  <path
     style="fill:#ff7f2a;stroke-width:0.793651"
     d="m 393.65079,706.63364 c -22.76636,-1.6856 -37.98359,-9.20203 -57.38055,-28.34266 l -8.09564,-7.98865 10.71429,-0.5336 c 16.75526,-0.83445 134.12698,-0.8286 134.12698,0.007 0,0.40029 -2.73294,3.63294 -6.07321,7.18367 -14.68859,15.61406 -30.8144,25.05494 -47.99415,28.09825 -7.04998,1.24887 -19.36019,2.01592 -25.29772,1.57631 z"
     id="path72"
     transform="scale(0.75)" />
  <path
     style="fill:#ffcc00;stroke-width:0.793651"
     d="m 357.93651,119.83676 c 0,-1.03549 6.56668,-9.98082 9.79991,-13.34974 1.81243,-1.88849 5.40376,-4.67729 7.98075,-6.19733 15.96622,-9.417757 34.06601,-9.315357 50.41843,0.28524 6.11004,3.58724 9.2255,6.55353 13.51077,12.86387 4.13269,6.08566 4.115,6.7503 -0.16224,6.09359 -13.89269,-2.13304 -61.94186,-2.21215 -75.39683,-0.12415 -3.38293,0.52499 -6.15079,0.71782 -6.15079,0.42852 z"
     id="path74"
     transform="scale(0.75)" />
  <path
     style="fill:#ffcc00;stroke-width:0.793651"
     d="m 292.85714,635.70743 c -74.39528,-3.3713 -125.26173,-13.58337 -142.2716,-28.56278 -4.83017,-4.25359 -9.32902,-11.87718 -12.64653,-21.43036 -2.60065,-7.48888 -2.61814,-7.63863 -2.59576,-22.22223 0.0256,-16.69389 0.90396,-22.14635 6.07283,-37.69841 5.82402,-17.52325 12.22932,-29.70965 31.07776,-59.12698 17.38617,-27.13515 22.01154,-35.08981 30.68848,-52.77778 19.40895,-39.56522 29.41851,-73.91592 38.5055,-132.14286 4.76317,-30.5211 9.3273,-45.98085 18.31258,-62.02889 18.21962,-32.54091 51.87838,-55.62822 96.34881,-66.08783 14.87841,-3.49946 19.66027,-3.84335 47.43272,-3.4111 27.11269,0.42198 30.4502,0.75491 45.42442,4.53134 39.44379,9.94752 68.72048,29.27085 87.97794,58.06758 11.37387,17.00798 15.87664,30.96267 22.75354,70.5162 9.05061,52.05604 15.44678,77.07502 27.49283,107.53969 9.59644,24.26956 19.11612,41.61967 42.45751,77.38095 17.55273,26.89251 24.5722,40.21393 30.4195,57.72961 4.39005,13.15047 5.61277,21.15216 5.62196,36.79094 0.0125,21.27527 -3.45963,32.69199 -12.77578,42.00814 -12.80719,12.80719 -43.05622,21.5128 -93.63004,26.94655 -37.62316,4.0423 -38.72125,4.07461 -148.4127,4.36726 -56.96428,0.15197 -110.17857,-0.0231 -118.25397,-0.38904 z"
     id="path76"
     transform="scale(0.75)" />
  <path
     style="fill:#ffcc00;stroke-width:0.793651"
     d="m 384.77878,705.16089 c -16.78289,-2.82434 -28.49689,-9.1701 -45.37192,-24.57906 -5.03458,-4.5972 -9.35343,-8.68156 -9.59744,-9.07637 -0.87257,-1.41186 16.71725,-1.74669 79.25713,-1.50873 l 63.43162,0.24137 -6.61241,6.98547 c -12.03083,12.70959 -26.90943,22.21408 -40.48893,25.86445 -11.77701,3.16584 -28.92366,4.04089 -40.61805,2.07287 z"
     id="path78"
     transform="scale(0.75)" />
  <path
     style="fill:#550000;stroke-width:0.793651"
     d="m 385.31746,736.77276 c -12.5424,-1.53289 -21.82351,-4.28814 -34.12698,-10.13114 -25.27141,-12.00155 -45.84051,-31.62633 -56.35577,-53.76845 l -2.87594,-6.05592 -5.30478,-0.45235 c -2.91763,-0.24879 -9.41193,-0.66955 -14.43177,-0.93503 -13.9932,-0.74004 -40.95351,-3.3292 -53.45341,-5.13345 -42.83784,-6.18325 -67.96149,-14.54533 -87.29423,-29.05479 -8.09099,-6.07239 -12.29823,-11.56221 -17.94442,-23.41478 -7.54376,-15.83599 -10.19768,-30.74135 -9.31583,-52.32095 0.69985,-17.12609 3.96357,-31.02324 11.95845,-50.92005 7.62961,-18.98776 13.80118,-30.15544 30.08569,-54.44113 14.09657,-21.02272 21.72529,-33.87747 29.52314,-49.74789 17.27283,-35.15418 26.42418,-67.32924 35.66583,-125.39683 4.87535,-30.63298 7.50466,-41.19048 13.97186,-56.10137 12.05386,-27.79156 36.21459,-55.04154 62.85735,-70.89445 9.18213,-5.46353 21.45849,-11.77694 27.81672,-14.30541 2.9585,-1.17651 5.70036,-2.73939 6.09301,-3.47307 0.39265,-0.73368 1.47425,-4.35246 2.40354,-8.04174 5.55087,-22.03683 22.31547,-42.089 43.72089,-52.294631 11.1224,-5.302912 14.79733,-5.972096 32.87967,-5.98719 15.40022,-0.01286 16.07395,0.05462 22.61904,2.265444 12.921,4.364494 21.63674,9.594295 31.2506,18.751646 12.17651,11.598324 18.3806,23.038501 23.46555,43.269871 0.79598,3.16695 0.86989,3.21821 10.6435,7.38124 47.3071,20.15023 81.13473,57.57883 93.73705,103.71537 2.7853,10.19689 4.21945,17.70816 9.09201,47.61905 7.95722,48.84653 17.85504,81.47554 35.02903,115.47619 8.0265,15.89067 15.1113,27.86307 29.82287,50.39683 12.86977,19.71266 18.25231,28.86639 23.6874,40.28359 12.71464,26.70895 18.01984,51.2692 16.7483,77.53571 -1.1827,24.43128 -8.73302,42.73215 -23.44797,56.83444 -22.48341,21.54728 -69.75826,33.6089 -150.20731,38.32361 -7.16066,0.41966 -12.14554,1.06554 -12.87111,1.66771 -0.6513,0.54053 -2.85327,3.8951 -4.89327,7.45458 -9.85958,17.20347 -23.6587,32.43107 -38.06731,42.00803 -15.46803,10.28114 -34.12227,17.69292 -49.17689,19.53921 -6.56268,0.80484 -27.75504,1.02635 -33.30451,0.3481 z m 27.77778,-30.03349 c 12.54257,-1.01124 28.91085,-7.38021 39.28571,-15.28625 9.78478,-7.45638 22.22222,-20.16691 22.22222,-22.71015 0,-0.65582 -111.48811,-0.62721 -131.22157,0.0336 -12.95558,0.43393 -15.60382,0.72044 -15.60382,1.68819 0,0.64108 3.43653,4.51933 7.63673,8.61836 19.00725,18.54941 34.6942,26.40903 55.85533,27.98514 8.17727,0.60907 10.65422,0.57173 21.8254,-0.32894 z m 103.1746,-70.20636 c 30.11295,-1.74023 60.68609,-4.97955 79.76191,-8.45103 39.01603,-7.10027 57.97242,-16.65169 65.83084,-33.16971 4.74489,-9.97353 5.20251,-12.88488 5.18826,-33.00741 -0.0114,-16.17079 -0.18894,-18.53168 -1.87952,-25 -5.85417,-22.39861 -15.75456,-42.50032 -34.62128,-70.29493 -40.29759,-59.36673 -57.01723,-104.00239 -69.84096,-186.4511 -6.86388,-44.13052 -15.89784,-64.91806 -37.88684,-87.17928 -18.78063,-19.01313 -41.19809,-31.32102 -71.23495,-39.11023 -14.76768,-3.82957 -23.00559,-4.72128 -48.01587,-5.19747 -25.66306,-0.48861 -33.44223,0.1935 -50.83999,4.4578 -44.45655,10.89659 -78.66233,35.47338 -95.77701,68.81558 -8.16917,15.91489 -11.78357,28.99058 -16.52021,59.76453 -8.08402,52.52193 -17.43955,86.35575 -34.00376,122.973 -8.07245,17.84517 -18.16324,35.35231 -36.64131,63.57131 -17.7776,27.14928 -23.4569,38.02633 -29.70017,56.88203 -4.9396,14.9184 -6.36719,23.621 -6.292,38.35606 0.0779,15.26061 1.37868,21.48733 6.7879,32.49239 5.3131,10.80953 12.21202,16.48208 27.46958,22.58652 25.98841,10.39778 78.66344,17.27598 143.45348,18.73188 37.59086,0.84471 186.51178,0.28474 204.7619,-0.76994 z M 365.87302,119.92017 c 15.5163,-2.11505 64.50152,-1.62831 74.5095,0.74036 1.91277,0.45271 3.6899,0.61096 3.94919,0.35168 0.89171,-0.89172 -3.98738,-8.98267 -8.27195,-13.71726 -6.92746,-7.655094 -19.99646,-13.696365 -32.09151,-14.83461 -12.34005,-1.161303 -28.00449,4.427558 -36.52844,13.03286 -7.43567,7.50663 -12.69208,16.73557 -8.90806,15.64034 0.76388,-0.2211 4.06746,-0.76711 7.34127,-1.21337 z"
     id="path80"
     transform="scale(0.75)" />
</svg>
