<?xml version="1.0" encoding="UTF-8" standalone="no"?>
<svg
   xmlns:dc="http://purl.org/dc/elements/1.1/"
   xmlns:cc="http://creativecommons.org/ns#"
   xmlns:rdf="http://www.w3.org/1999/02/22-rdf-syntax-ns#"
   xmlns:svg="http://www.w3.org/2000/svg"
   xmlns="http://www.w3.org/2000/svg"
   xmlns:sodipodi="http://sodipodi.sourceforge.net/DTD/sodipodi-0.dtd"
   xmlns:inkscape="http://www.inkscape.org/namespaces/inkscape"
   version="1.0"
   width="600.000000pt"
   height="600.000000pt"
   viewBox="0 0 600.000000 600.000000"
   preserveAspectRatio="xMidYMid meet"
   id="svg194"
   sodipodi:docname="new_notification2.svg"
   inkscape:version="1.0.1 (0767f8302a, 2020-10-17)">
  <metadata
     id="metadata200">
    <rdf:RDF>
      <cc:Work
         rdf:about="">
        <dc:format>image/svg+xml</dc:format>
        <dc:type
           rdf:resource="http://purl.org/dc/dcmitype/StillImage" />
        <dc:title></dc:title>
      </cc:Work>
    </rdf:RDF>
  </metadata>
  <defs
     id="defs198" />
  <sodipodi:namedview
     pagecolor="#ffffff"
     bordercolor="#666666"
     borderopacity="1"
     objecttolerance="10"
     gridtolerance="10"
     guidetolerance="10"
     inkscape:pageopacity="0"
     inkscape:pageshadow="2"
     inkscape:window-width="2560"
     inkscape:window-height="1376"
     id="namedview196"
     showgrid="false"
     inkscape:zoom="1.26"
     inkscape:cx="400"
     inkscape:cy="400"
     inkscape:window-x="0"
     inkscape:window-y="27"
     inkscape:window-maximized="1"
     inkscape:current-layer="svg194" />
  <g
     transform="translate(0.000000,600.000000) scale(0.100000,-0.100000)"
     fill="#000000"
     stroke="none"
     id="g192">
    <path
       d="M4115 5737 c-21 -17 -27 -32 -27 -62 0 -61 28 -79 150 -94 318 -38 596 -175 827 -406 225 -225 372 -529 401 -828 7 -77 24 -121 49 -131 38 -14 82 -6 106 20 21 22 24 34 21 91 -3 85 -36 246 -73 358 -185 553 -660 960 -1238 1059 -134 23 -184 21 -216 -7z"
       id="path178" />
    <path
       d="M4128 5391 c-57 -46 -41 -131 30 -150 20 -6 47 -11 58 -11 51 0 225 -53 309 -94 314 -153 530 -444 586 -790 15 -97 39 -130 94 -130 29 0 43 7 61 28 28 32 30 63 9 175 -89 466 -444 841 -905 956 -52 13 -122 27 -155 30 -52 6 -64 4 -87 -14z"
       id="path180" />
    <path
       d="M3291 5049 c-165 -32 -325 -184 -367 -347 l-17 -68 -78 -33 c-121 -51 -245 -138 -340 -239 -97 -103 -160 -207 -205 -336 -32 -94 -39 -125 -74 -359 -59 -385 -165 -663 -368 -967 -125 -187 -170 -266 -216 -385 -46 -122 -66 -224 -66 -347 0 -213 70 -367 207 -454 149 -96 439 -161 818 -182 l130 -7 35 -64 c77 -141 240 -279 395 -334 198 -70 386 -58 580 37 136 67 270 200 331 329 l18 37 65 0 c151 0 462 39 607 75 263 67 391 165 456 353 20 59 23 85 22 217 -1 133 -4 160 -28 240 -41 136 -121 293 -241 470 -217 321 -324 607 -386 1036 -36 249 -80 382 -175 525 -100 151 -275 290 -455 364 -56 22 -57 24 -73 82 -26 93 -63 157 -130 223 -119 119 -278 167 -445 134z m213 -200 c40 -14 69 -35 105 -75 28 -31 51 -60 51 -66 0 -6 -13 -8 -32 -4 -80 14 -308 18 -397 7 -51 -7 -96 -9 -99 -7 -10 11 46 82 86 110 86 59 188 72 286 35z m143 -343 c305 -62 543 -236 653 -480 38 -83 54 -149 84 -343 72 -466 182 -759 410 -1098 123 -182 163 -257 209 -388 29 -86 32 -101 32 -227 0 -120 -3 -141 -23 -185 -13 -27 -35 -63 -50 -78 -137 -145 -605 -206 -1567 -207 -572 0 -1001 24 -1240 70 -316 62 -409 152 -408 400 1 191 61 342 246 618 130 193 215 359 277 537 48 140 102 356 124 505 36 232 48 289 79 365 114 282 365 462 722 520 108 17 343 13 452 -9z m193 -3201 c0 -5 -30 -39 -67 -75 -121 -118 -287 -175 -442 -153 -137 20 -236 69 -327 161 -82 84 -117 77 387 77 281 0 449 -4 449 -10z"
       id="path182" />
    <path
       d="M4121 5024 c-53 -67 -13 -125 104 -154 269 -67 476 -277 530 -539 21 -101 85 -141 148 -91 37 29 39 58 13 163 -49 194 -162 364 -319 483 -115 87 -309 164 -414 164 -33 0 -46 -6 -62 -26z"
       id="path184" />
    <path
       d="M393 1764 c-25 -25 -25 -29 -19 -108 43 -530 405 -1041 899 -1270 168 -78 357 -130 519 -142 83 -7 87 -6 112 19 34 34 35 88 3 121 -18 18 -40 25 -93 30 -320 33 -606 164 -836 385 -245 234 -387 518 -427 851 -14 113 -32 140 -93 140 -28 0 -46 -7 -65 -26z"
       id="path186" />
    <path
       d="M774 1776 c-42 -19 -54 -55 -43 -136 53 -388 309 -744 667 -924 139 -70 394 -138 459 -122 39 10 63 42 63 84 0 56 -29 79 -120 93 -347 53 -635 259 -792 565 -53 104 -80 189 -103 319 -9 55 -22 96 -33 107 -25 24 -62 30 -98 14z"
       id="path188" />
    <path
       d="M1123 1768 c-31 -15 -46 -59 -38 -110 45 -271 248 -531 502 -643 122 -54 250 -78 293 -55 29 15 44 73 28 107 -16 34 -43 47 -132 67 -247 56 -455 270 -512 524 -24 109 -70 145 -141 110z"
       id="path190" />
  </g>
  <path
     style="fill:#ffcc00;stroke-width:0.793651"
     d="m 414.28571,599.11888 c -35.96861,-0.50456 -44.67469,-0.83353 -73.01587,-2.75894 -54.81839,-3.72419 -83.69792,-10.8062 -96.4528,-23.65276 -7.78329,-7.83924 -10.55256,-15.59885 -11.2194,-31.43734 -1.02853,-24.42896 6.43013,-45.70035 27.32905,-77.93982 24.45965,-37.73239 33.34801,-54.658 42.21371,-80.38523 7.25922,-21.06542 12.85737,-44.83993 18.2285,-77.41372 3.62377,-21.97678 5.24573,-28.94837 8.80155,-37.83113 15.72131,-39.27332 54.58628,-65.39763 104.35336,-70.14439 11.3196,-1.07966 34.69809,-0.42723 46.12556,1.28723 42.48689,6.3743 77.94186,31.6579 92.88297,66.23659 4.19522,9.70911 6.38134,18.64661 10.24525,41.88548 7.12153,42.83132 13.32447,66.48879 24.26979,92.56272 7.83999,18.67643 15.23282,32.12274 30.8044,56.02799 18.11853,27.8153 22.06074,35.21575 28.0939,52.73888 l 3.29242,9.5627 v 19.44445 19.44444 l -2.60033,5.31612 c -4.18568,8.55723 -9.35052,13.54529 -18.75043,18.10868 -4.40788,2.13991 -11.86467,4.9626 -16.57064,6.27265 -35.84561,9.97872 -108.62955,14.21007 -218.03099,12.6754 z"
     id="path202"
     transform="scale(0.75)" />
  <path
     style="fill:#ffcc00;stroke-width:0.793651"
     d="m 437.58979,654.80486 c -14.52801,-3.39243 -24.94784,-9.09242 -35.92795,-19.65373 -6.20538,-5.96871 -7.41126,-7.49702 -6.57524,-8.33334 0.81193,-0.81221 12.31447,-1.06952 55.5862,-1.24343 30.00933,-0.12061 55.97377,0.0842 57.69877,0.45515 l 3.13637,0.67444 -6.74604,6.75049 c -10.20521,10.21196 -20.91199,16.74527 -33.75868,20.59966 -8.09222,2.4279 -24.63895,2.79969 -33.41343,0.75076 z"
     id="path204"
     transform="scale(0.75)" />
  <path
     style="fill:#ffcc00;stroke-width:0.793651"
     d="m 482.14286,172.11934 c -9.10656,-1.34505 -37.79062,-1.73614 -50.43458,-0.68764 -6.966,0.57766 -12.87188,0.84385 -13.12418,0.59155 -1.49547,-1.49546 8.32797,-12.23375 14.29764,-15.62918 11.71734,-6.66459 26.74269,-6.74154 38.83085,-0.19886 3.54106,1.91659 13.10837,11.28757 14.85386,14.54904 0.98797,1.84604 0.27195,2.06862 -4.42359,1.37509 z"
     id="path206"
     transform="scale(0.75)" />
  <path
     style="fill:#550000;stroke-width:0.793651"
     d="m 436.44582,680.51445 c -17.5068,-3.17024 -32.51622,-10.46664 -47.71342,-23.19451 -9.43715,-7.90376 -16.25942,-16.25748 -22.83,-27.95486 -1.83893,-3.27381 -3.42496,-6.03545 -3.5245,-6.13698 -0.0995,-0.10154 -6.22885,-0.54969 -13.6207,-0.99589 -69.21916,-4.17842 -109.53907,-15.63823 -125.49561,-35.66866 -5.00591,-6.28397 -9.6143,-15.79192 -11.92736,-24.60833 -1.60368,-6.11251 -2.07045,-10.16657 -2.39768,-20.82454 -0.4495,-14.64057 0.29443,-21.89768 3.52479,-34.38465 5.17327,-19.99734 11.54675,-32.7295 32.77615,-65.47619 12.16118,-18.75881 16.613,-26.51905 23.74083,-41.38405 12.64725,-26.37567 19.78766,-50.67688 25.85142,-87.98103 4.38645,-26.98537 5.89246,-34.86231 8.00047,-41.84523 6.66346,-22.07313 17.20968,-39.37188 33.79014,-55.42532 12.88336,-12.47384 25.19844,-20.74236 41.77652,-28.04933 l 9.49488,-4.18498 1.76239,-6.67138 c 5.73588,-21.71264 22.45573,-39.80222 43.28237,-46.82814 8.5796,-2.89435 23.33114,-3.58794 32.63882,-1.53461 23.84772,5.26096 42.35192,22.91721 49.506,47.2374 0.96304,3.27381 2.13454,6.42287 2.60335,6.99791 0.46882,0.57505 5.68395,3.35233 11.58919,6.17175 35.02373,16.72185 58.85678,42.07565 70.20856,74.68846 3.63522,10.44373 6.11482,21.763 9.98762,45.59319 9.45535,58.18075 21.02924,88.59381 51.60205,135.59631 14.71,22.61509 20.11763,32.43593 26.67253,48.4402 6.85324,16.73266 7.63404,20.8431 8.07438,42.50676 0.35805,17.61501 0.25606,19.64722 -1.29445,25.79365 -2.57324,10.20072 -7.9223,20.243 -14.57949,27.37145 -15.47815,16.57385 -38.08531,24.85616 -84.31015,30.88767 -14.97896,1.9545 -34.9279,3.56337 -44.23717,3.56772 l -8.52289,0.004 -3.13627,6.23773 c -6.04403,12.02096 -18.80566,26.46531 -31.09476,35.1948 -11.02974,7.83492 -27.0918,14.49042 -40.69571,16.86274 -8.52482,1.48661 -23.28399,1.48518 -31.5023,-0.003 z m 29.60822,-24.49589 c 15.79909,-3.02288 32.20808,-12.76893 42.87088,-25.463 l 3.99991,-4.76191 -4.27987,-0.51675 c -5.52748,-0.66738 -109.08034,-0.64751 -112.2067,0.0215 -4.2868,0.91738 -3.52623,2.98272 3.61377,9.81316 12.7346,12.18248 25.1337,18.51856 42.01146,21.46833 4.61014,0.80573 18.55022,0.47954 23.99055,-0.56136 z m 58.15231,-56.823 c 66.38736,-2.4586 105.78036,-8.26904 126.61581,-18.67573 8.02682,-4.00917 12.88247,-8.86717 16.83297,-16.84112 l 3.37662,-6.8156 -0.0104,-19.89981 c -0.0103,-19.7631 -0.0259,-19.94598 -2.27209,-26.62159 -5.92336,-17.60442 -11.61254,-28.54528 -27.45674,-52.80203 -13.1863,-20.18759 -17.58336,-27.61088 -24.33084,-41.07618 -15.78535,-31.50137 -23.76852,-58.55292 -32.42216,-109.86493 -4.08477,-24.22068 -5.70184,-31.11417 -9.48732,-40.44383 -5.27359,-12.99723 -16.51527,-28.77695 -26.89401,-37.75057 -16.20822,-14.01389 -37.6724,-24.42979 -60.16781,-29.19755 -11.48769,-2.43475 -36.17446,-3.65608 -50.92048,-2.51919 -51.33528,3.95785 -89.91081,28.75594 -106.91161,68.72758 -4.16801,9.79966 -5.69554,16.28183 -10.26537,43.5617 -7.76215,46.33658 -16.76773,76.8827 -31.20949,105.85979 -6.56888,13.1803 -11.72654,21.91975 -25.20167,42.70318 -18.21679,28.09677 -25.00278,42.10726 -29.08502,60.0495 -1.90182,8.35892 -1.94686,31.70065 -0.0744,38.54943 4.10953,15.03098 12.91966,23.14387 32.21611,29.66648 20.34624,6.87747 57.74399,11.37665 110.84248,13.33504 25.02758,0.92308 122.40448,0.95984 146.8254,0.0554 z m -37.3665,-425.86777 c 2.0986,-0.80531 1.46683,-2.2031 -3.76299,-8.32573 -7.7955,-9.12627 -13.99589,-12.62784 -25.16597,-14.21204 -10.75711,-1.52564 -23.64856,2.10613 -31.30227,8.81843 -4.38471,3.84538 -9.1483,10.09615 -9.1483,12.00435 0,1.58832 0.22291,1.61131 8.92857,0.92079 15.97796,-1.26734 56.72513,-0.45147 59.06207,1.18259 0.0734,0.0513 0.69843,-0.12344 1.38889,-0.38839 z"
     id="path208"
     transform="scale(0.75)" />
  <path
     style="fill:#550000;stroke-width:0.793651"
     d="m 235.85589,671.81987 c -13.97179,-2.53128 -32.89277,-10.90097 -44.60548,-19.73123 -18.78543,-14.16241 -34.93998,-36.31343 -42.12641,-57.7635 -6.78099,-20.23988 -5.42474,-28.62406 5.03598,-31.13196 3.19664,-0.76638 7.33618,1.29746 9.6274,4.7999 1.09331,1.67127 3.27319,7.50295 4.84418,12.9593 5.25962,18.2677 12.92813,31.55463 25.42024,44.04464 12.04439,12.04237 25.90946,19.89792 42.85296,24.27928 10.73287,2.77537 14.62684,4.62713 16.53974,7.86541 3.08022,5.21439 0.3907,13.588 -4.83001,15.03785 -3.67747,1.02128 -5.40498,0.97257 -12.7586,-0.35969 z"
     id="path210"
     transform="scale(0.75)" />
  <path
     style="fill:#550000;stroke-width:0.793651"
     d="m 231.46342,719.04212 c -8.98032,-1.89239 -21.8149,-5.6786 -31.45025,-9.27785 -43.23619,-16.1507 -80.18925,-54.99932 -95.29704,-100.18542 -5.972026,-17.8618 -8.670265,-36.18549 -6.081757,-41.30106 3.445877,-6.80996 15.016217,-7.4173 18.353657,-0.96341 0.62803,1.21448 2.41654,8.27468 3.97446,15.68932 1.55792,7.41465 3.89648,16.62861 5.1968,20.47548 7.2302,21.38975 22.59043,44.80776 38.60764,58.86072 21.13514,18.54324 42.13055,28.76073 70.80402,34.45702 12.57499,2.49816 15.38053,3.48268 17.91967,6.28839 2.19948,2.43039 2.5389,8.53438 0.66356,11.93273 -3.15671,5.72035 -9.39285,6.82629 -22.69076,4.02408 z"
     id="path212"
     transform="scale(0.75)" />
  <path
     style="fill:#550000;stroke-width:0.793651"
     d="M 233.99831,766.63469 C 196.91859,762.30766 158.11699,745.89446 128.2781,721.91471 83.87585,686.23126 53.491599,629.88074 50.260454,577.22348 c -0.420367,-6.85063 -0.28902,-8.41088 0.855041,-10.15694 3.095603,-4.72448 10.448262,-6.61012 15.529337,-3.98259 3.085564,1.5956 5.026441,7.10088 6.719187,19.05891 3.819782,26.98399 11.484401,49.52314 24.052045,70.72924 21.835596,36.84445 57.347876,66.65577 96.631556,81.11881 15.6462,5.76046 27.10695,8.53601 44.75828,10.83953 11.4524,1.49455 12.68938,1.90373 15.3639,5.08223 4.07988,4.84866 3.50623,10.75951 -1.46809,15.12703 -2.52532,2.21725 -3.20469,2.41186 -8.08647,2.31631 -2.93124,-0.0574 -7.70886,-0.38196 -10.61693,-0.72132 z"
     id="path214"
     transform="scale(0.75)" />
  <path
     style="fill:#550000;stroke-width:0.793651"
     d="m 642.25465,235.71857 c -3.11152,-1.89712 -5.35916,-5.37206 -6.9329,-10.71857 -0.64244,-2.18254 -2.06797,-7.05903 -3.16785,-10.83665 -4.24615,-14.58358 -13.04405,-28.56293 -25.19526,-40.03378 -12.40749,-11.71278 -24.77747,-18.56155 -42.86207,-23.73104 -14.40626,-4.11803 -19.81989,-9.8344 -16.1092,-17.01007 1.94456,-3.76037 5.72063,-6.40433 9.14656,-6.40433 11.80122,0 35.71173,8.75125 50.40575,18.44852 20.52838,13.54763 37.21188,35.64011 45.10313,59.72608 5.02179,15.32773 5.76786,23.37151 2.52514,27.22525 -2.11186,2.50981 -6.45566,4.9195 -8.85932,4.91464 -0.80705,-0.002 -2.63134,-0.71265 -4.05398,-1.58005 z"
     id="path216"
     transform="scale(0.75)" />
  <path
     style="fill:#550000;stroke-width:0.793651"
     d="m 688.7689,236.09508 c -3.11506,-1.6921 -5.10676,-6.66682 -7.46069,-18.63476 -4.0235,-20.45641 -11.09805,-37.7667 -22.38065,-54.76191 -7.43174,-11.19457 -23.75408,-27.89955 -35.11804,-35.94128 -9.73903,-6.89185 -25.63209,-14.76898 -37.80742,-18.73863 -8.91364,-2.90621 -13.56162,-4.00539 -27.27132,-6.44929 -6.68132,-1.19102 -9.181,-2.739589 -11.21949,-6.950542 -1.90053,-3.925966 -1.6275,-6.940165 0.9575,-10.570451 3.87317,-5.439377 8.53596,-5.756575 27.07659,-1.841954 63.30041,13.365088 112.31177,61.626827 126.40721,124.473837 4.04367,18.02943 3.64179,23.80821 -1.98498,28.54282 -2.84065,2.39025 -7.70638,2.7692 -11.19871,0.87216 z"
     id="path218"
     transform="scale(0.75)" />
  <path
     style="fill:#550000;stroke-width:0.793651"
     d="m 734.13029,235.8397 c -2.70381,-2.70381 -3.61393,-5.82226 -5.16684,-17.70352 -1.53057,-11.71034 -2.3725,-15.90685 -5.31047,-26.46951 -8.5665,-30.79838 -25.41878,-59.393 -48.6449,-82.53969 C 646.46575,80.682257 611.6556,62.742247 573.4127,56.768041 c -22.96715,-3.587866 -25.88673,-4.642398 -27.46834,-9.921363 -1.74549,-5.825922 0.97592,-11.305184 6.68667,-13.462854 7.655,-2.89226 38.62523,2.681524 61.85655,11.132467 20.01015,7.279166 43.65221,20.700587 60.90925,34.577727 30.27289,24.343762 54.86998,60.249392 67.00448,97.809902 7.56578,23.41871 11.49132,50.80871 8.0374,56.08005 -2.08715,3.18538 -5.92835,5.10497 -10.22198,5.1083 -3.15322,0.002 -4.22989,-0.39603 -6.08644,-2.25257 z"
     id="path220"
     transform="scale(0.75)" />
</svg>
