<svg height="512pt" viewBox="0 0 512 512" width="512pt" xmlns="http://www.w3.org/2000/svg"><path d="m410.441406 202.902344-12.269531 21.027344c-1.691406 2.902343-4.792969 4.6875-8.148437 4.6875h-59.980469l-24.34375 71.648437 2.546875 92.839844h-35.902344l-3.628906-53.441407c-1.175782-17.328124-15.574219-30.792968-32.953125-30.792968h-23.792969c-24.546875 0-44.4375 19.902344-44.4375 44.4375v39.796875h-27.863281l-29.378907-220.667969c-.539062-4.023438 4.664063-6.09375 7.046876-2.808594l31.214843 42.988282c5.324219 7.328124 14.628907 10.59375 23.359375 8.191406l78.464844-21.617188 56.289062-92.867187c1.824219-3.023438 6.335938-2.566407 7.519532.75l10.902344 30.375 37.429687 14.253906c2.523437.964844 4.1875 3.386719 4.1875 6.085937v13.632813c0 2.800781 1.785156 5.273437 4.421875 6.175781l34.207031 11.628906c5.648438 1.917969 8.109375 8.527344 5.109375 13.675782zm0 0" fill="#f2b375"/><path d="m330.042969 228.617188c-21.800781 0-45.609375 32.804687-45.609375 32.804687l21.265625 38.84375zm0 0" fill="#e09544"/><path d="m167.53125 353.308594v39.796875h-27.863281l-29.378907-220.667969c-.539062-4.023438 4.664063-6.09375 7.046876-2.808594l31.214843 42.988282c5.324219 7.328124 14.628907 10.59375 23.359375 8.191406-23.207031 6.8125-39.144531 97.738281-4.378906 132.5zm0 0" fill="#e09544"/><path d="m256 7.605469c-137.1875 0-248.394531 111.207031-248.394531 248.394531s111.207031 248.394531 248.394531 248.394531 248.394531-111.207031 248.394531-248.394531-111.207031-248.394531-248.394531-248.394531zm-203.714844 248.394531c0-69.039062 34.351563-130.050781 86.890625-166.894531l194.460938 355.277343c-23.925781 9.871094-50.144531 15.332032-77.636719 15.332032-112.507812 0-203.714844-91.207032-203.714844-203.714844zm320.53125 166.898438-194.460937-355.277344c23.929687-9.875 50.148437-15.335938 77.644531-15.335938 112.507812 0 203.703125 91.207032 203.703125 203.714844 0 69.042969-34.347656 130.054688-86.886719 166.898438zm0 0" fill="#ff5a73"/><path d="m437.019531 74.980469c-48.351562-48.351563-112.640625-74.980469-181.019531-74.980469s-132.667969 26.628906-181.019531 74.980469c-48.351563 48.351562-74.980469 112.640625-74.980469 181.019531s26.628906 132.667969 74.980469 181.019531c48.351562 48.351563 112.640625 74.980469 181.019531 74.980469 67.050781 0 130.449219-25.75 178.507812-72.503906 3.011719-2.929688 3.078126-7.746094.148438-10.753906-2.925781-3.011719-7.742188-3.078126-10.75-.148438-45.207031 43.976562-104.839844 68.199219-167.90625 68.199219-64.316406 0-124.785156-25.046875-170.265625-70.527344s-70.527344-105.949219-70.527344-170.265625 25.046875-124.785156 70.527344-170.265625 105.949219-70.527344 170.265625-70.527344 124.785156 25.046875 170.265625 70.527344 70.527344 105.949219 70.527344 170.265625c0 55.496094-18.34375 107.636719-53.050781 150.789062-2.632813 3.273438-2.113282 8.0625 1.160156 10.691407 3.273437 2.632812 8.058594 2.113281 10.691406-1.160157 17.894531-22.246093 31.835938-47.097656 41.4375-73.855468 9.929688-27.691406 14.96875-56.78125 14.96875-86.464844 0-68.378906-26.628906-132.667969-74.980469-181.019531zm0 0"/><path d="m140.902344 81.699219c-2.101563-.488281-4.320313-.0625-6.09375 1.179687-56.433594 39.578125-90.128906 104.296875-90.128906 173.121094 0 116.523438 94.796874 211.320312 211.320312 211.320312 27.859375 0 54.957031-5.351562 80.539062-15.910156 2-.824218 3.550782-2.460937 4.269532-4.496094.722656-2.039062.539062-4.285156-.5-6.183593l-194.460938-355.277344c-1.039062-1.898437-2.839844-3.261719-4.945312-3.753906zm115.097656 370.410156c-108.136719 0-196.109375-87.972656-196.109375-196.109375 0-61.03125 28.546875-118.582031 76.78125-155.628906l58.152344 106.238281-24.929688 6.867187c-5.652343 1.554688-11.753906-.585937-15.191406-5.328124l-31.214844-42.984376c-3.148437-4.34375-8.617187-5.921874-13.601562-3.929687-4.976563 1.988281-7.84375 6.894531-7.136719 12.207031l8.527344 64.023438c.507812 3.824218 3.773437 6.601562 7.527344 6.601562.335937 0 .671874-.019531 1.011718-.066406 4.164063-.554688 7.089844-4.378906 6.535156-8.539062l-6.601562-49.5625 22.644531 31.179687c7.128907 9.84375 19.800781 14.289063 31.535157 11.0625l28.398437-7.824219 45.28125 82.734375c-3.757813-1.15625-7.734375-1.78125-11.847656-1.78125h-23.792969c-28.699219 0-52.042969 23.34375-52.042969 52.039063v32.191406h-13.597656l-15.972656-119.9375c-.554688-4.164062-4.378907-7.089844-8.542969-6.535156-4.160156.554687-7.085938 4.378906-6.53125 8.539062l16.847656 126.542969c.503906 3.777344 3.726563 6.597656 7.539063 6.597656h27.863281c4.199219 0 7.601562-3.402343 7.601562-7.601562v-39.796875c0-20.308594 16.523438-36.832032 36.835938-36.832032h23.792969c13.320312 0 24.460937 10.410157 25.367187 23.703126l3.628906 53.441406c.269532 3.988281 3.585938 7.085937 7.585938 7.085937h28.71875l21.742188 39.71875c-21.375 7.757813-43.808594 11.683594-66.804688 11.683594zm21.566406-94.335937 15.175782 27.726562h-13.292969zm0 0"/><path d="m371.089844 430.304688c.574218.132812 1.152344.195312 1.730468.195312 1.546876 0 3.074219-.472656 4.367188-1.378906 56.429688-39.574219 90.121094-104.292969 90.121094-173.121094 0-116.523438-94.792969-211.320312-211.308594-211.320312-27.859375 0-54.960938 5.355468-80.542969 15.910156-2 .824218-3.550781 2.460937-4.269531 4.5-.722656 2.035156-.539062 4.285156.5 6.179687l194.460938 355.277344c1.039062 1.898437 2.835937 3.265625 4.941406 3.757813zm-115.089844-370.414063c108.128906 0 196.101562 87.972656 196.101562 196.109375 0 61.03125-28.546874 118.585938-76.78125 155.628906l-61.347656-112.078125 21.515625-63.332031h54.535157c6.03125 0 11.671874-3.238281 14.71875-8.457031l12.269531-21.03125c2.585937-4.4375 3.039062-9.742188 1.238281-14.550781-1.796875-4.804688-5.617188-8.503907-10.46875-10.152344l-33.472656-11.378906v-12.859376c0-5.816406-3.648438-11.117187-9.085938-13.191406l-34.164062-13.007812-9.714844-27.078125c-1.546875-4.324219-5.347656-7.296875-9.921875-7.757813-4.574219-.457031-8.890625 1.703125-11.261719 5.628906l-49.449218 81.585938-61.523438-112.394531c21.378906-7.757813 43.8125-11.683594 66.8125-11.683594zm3.148438 139.496094 50.300781-82.992188 8.476562 23.621094c.75 2.09375 2.375 3.75 4.453125 4.539063l36.71875 13.984374v12.882813c0 6.039063 3.84375 11.414063 9.578125 13.375l34.210938 11.632813c.675781.226562.980469.714843 1.117187 1.082031.140625.371093.230469.945312-.132812 1.5625l-12.261719 21.023437c-.332031.5625-.9375.914063-1.585937.914063h-59.980469c-3.257813 0-6.152344 2.074219-7.199219 5.160156l-18.78125 55.273437zm0 0"/><path d="m334.585938 179.667969c1.164062 2.753906 3.855468 4.621093 6.855468 4.691406 3.230469.070313 6.238282-2.003906 7.320313-5.042969 1.136719-3.1875-.027344-6.867187-2.808594-8.800781-2.441406-1.695313-5.707031-1.796875-8.257813-.277344-3.195312 1.90625-4.535156 5.992188-3.109374 9.429688zm0 0"/></svg>