<?xml version="1.0" encoding="utf-8"?>
<!DOCTYPE svg PUBLIC "-//W3C//DTD SVG 1.1//EN" "http://www.w3.org/Graphics/SVG/1.1/DTD/svg11.dtd">
<svg version="1.1" xmlns="http://www.w3.org/2000/svg" xmlns:xlink="http://www.w3.org/1999/xlink" x="0px" y="0px" viewBox="0 0 1000 1000" enable-background="new 0 0 1000 1000" xml:space="preserve">
<g><path style="fill: #fc9d04;" d="M694.9,208.8c19.2-20-19.2-60.1-38.4-40L211.9,633.3c0,0-99.6,104.1-7.7,200.2c92,96.1,191.7-8,191.7-8L863.6,337c0,0,122.7-128.2-7.7-264.3c-130.3-136.2-253-8-253-8L135.2,553.3c0,0-176.3,184.2-7.7,360.5c168.6,176.2,345-8,345-8l467.7-488.6c19.2-20-19.2-60.1-38.4-40L434.3,865.6c0,0-138,144.2-268.3,8c-130.3-136.2,7.7-280.3,7.7-280.3l467.6-488.6c0,0,84.3-88.1,176.3,8c92,96.1,7.7,184.2,7.7,184.2L357.6,785.5c0,0-61.3,64.1-115,8c-53.7-56.1,7.7-120.1,7.7-120.1L694.9,208.8z"/></g>
</svg>