<svg width="256" height="256" xmlns="http://www.w3.org/2000/svg" preserveAspectRatio="xMidYMid meet">

 <g>
  <title>background</title>
  <rect fill="none" id="canvas_background" height="602" width="802" y="-1" x="-1"/>
 </g>
 <g>
  <title>Layer 1</title>
  <g id="svg_1" fill="none" transform="translate(0,256) scale(0.10000000149011612,-0.10000000149011612) ">
   <path fill="#f44336" stroke="null" id="svg_2" d="m525,2455c-357,-78 -589,-420 -522,-772c38,-199 153,-405 378,-675c101,-121 428,-465 698,-733l191,-190l130,130l129,129l-47,50c-139,148 -205,313 -205,516c0,204 68,366 218,515c131,132 255,192 439,215c154,19 328,-20 466,-106c83,-51 79,-52 109,41c65,195 46,392 -52,565c-40,71 -166,197 -237,237c-154,87 -362,116 -530,74c-167,-42 -305,-134 -380,-255c-19,-30 -37,-56 -40,-56c-3,0 -21,26 -40,56c-104,168 -320,275 -549,273c-53,0 -123,-6 -156,-14z"/>
   <path fill="#f44336" stroke="null" id="svg_3" d="m1886,1414c-181,-44 -337,-202 -381,-385c-66,-282 108,-568 386,-634c383,-90 724,251 634,634c-66,279 -356,454 -639,385zm452,-516l3,-88l-316,0l-315,0l0,90l0,90l313,-2l312,-3l3,-87z"/>
  </g>
 </g>
</svg>