<?xml version="1.0" standalone="no"?>
<!DOCTYPE svg PUBLIC "-//W3C//DTD SVG 20010904//EN"
 "http://www.w3.org/TR/2001/REC-SVG-20010904/DTD/svg10.dtd">
<svg version="1.0" xmlns="http://www.w3.org/2000/svg"
 width="600.000000pt" height="600.000000pt" viewBox="0 0 600.000000 600.000000"
 preserveAspectRatio="xMidYMid meet" > 

<g transform="translate(0.000000,600.000000) scale(0.100000,-0.100000)"
fill="#ffaa00" stroke="red" stroke-width="5">
<path d="M4115 5737 c-21 -17 -27 -32 -27 -62 0 -61 28 -79 150 -94 318 -38
596 -175 827 -406 225 -225 372 -529 401 -828 7 -77 24 -121 49 -131 38 -14
82 -6 106 20 21 22 24 34 21 91 -3 85 -36 246 -73 358 -185 553 -660 960
-1238 1059 -134 23 -184 21 -216 -7z"/>
<path d="M4128 5391 c-57 -46 -41 -131 30 -150 20 -6 47 -11 58 -11 51 0 225
-53 309 -94 314 -153 530 -444 586 -790 15 -97 39 -130 94 -130 29 0 43 7 61
28 28 32 30 63 9 175 -89 466 -444 841 -905 956 -52 13 -122 27 -155 30 -52 6
-64 4 -87 -14z"/>
<path d="M3291 5049 c-165 -32 -325 -184 -367 -347 l-17 -68 -78 -33 c-121
-51 -245 -138 -340 -239 -97 -103 -160 -207 -205 -336 -32 -94 -39 -125 -74
-359 -59 -385 -165 -663 -368 -967 -125 -187 -170 -266 -216 -385 -46 -122
-66 -224 -66 -347 0 -213 70 -367 207 -454 149 -96 439 -161 818 -182 l130 -7
35 -64 c77 -141 240 -279 395 -334 198 -70 386 -58 580 37 136 67 270 200 331
329 l18 37 65 0 c151 0 462 39 607 75 263 67 391 165 456 353 20 59 23 85 22
217 -1 133 -4 160 -28 240 -41 136 -121 293 -241 470 -217 321 -324 607 -386
1036 -36 249 -80 382 -175 525 -100 151 -275 290 -455 364 -56 22 -57 24 -73
82 -26 93 -63 157 -130 223 -119 119 -278 167 -445 134z m213 -200 c40 -14 69
-35 105 -75 28 -31 51 -60 51 -66 0 -6 -13 -8 -32 -4 -80 14 -308 18 -397 7
-51 -7 -96 -9 -99 -7 -10 11 46 82 86 110 86 59 188 72 286 35z m143 -343
c305 -62 543 -236 653 -480 38 -83 54 -149 84 -343 72 -466 182 -759 410
-1098 123 -182 163 -257 209 -388 29 -86 32 -101 32 -227 0 -120 -3 -141 -23
-185 -13 -27 -35 -63 -50 -78 -137 -145 -605 -206 -1567 -207 -572 0 -1001 24
-1240 70 -316 62 -409 152 -408 400 1 191 61 342 246 618 130 193 215 359 277
537 48 140 102 356 124 505 36 232 48 289 79 365 114 282 365 462 722 520 108
17 343 13 452 -9z m193 -3201 c0 -5 -30 -39 -67 -75 -121 -118 -287 -175 -442
-153 -137 20 -236 69 -327 161 -82 84 -117 77 387 77 281 0 449 -4 449 -10z"/>
<path d="M4121 5024 c-53 -67 -13 -125 104 -154 269 -67 476 -277 530 -539 21
-101 85 -141 148 -91 37 29 39 58 13 163 -49 194 -162 364 -319 483 -115 87
-309 164 -414 164 -33 0 -46 -6 -62 -26z"/>
<path d="M393 1764 c-25 -25 -25 -29 -19 -108 43 -530 405 -1041 899 -1270
168 -78 357 -130 519 -142 83 -7 87 -6 112 19 34 34 35 88 3 121 -18 18 -40
25 -93 30 -320 33 -606 164 -836 385 -245 234 -387 518 -427 851 -14 113 -32
140 -93 140 -28 0 -46 -7 -65 -26z"/>
<path d="M774 1776 c-42 -19 -54 -55 -43 -136 53 -388 309 -744 667 -924 139
-70 394 -138 459 -122 39 10 63 42 63 84 0 56 -29 79 -120 93 -347 53 -635
259 -792 565 -53 104 -80 189 -103 319 -9 55 -22 96 -33 107 -25 24 -62 30
-98 14z"/>
<path d="M1123 1768 c-31 -15 -46 -59 -38 -110 45 -271 248 -531 502 -643 122
-54 250 -78 293 -55 29 15 44 73 28 107 -16 34 -43 47 -132 67 -247 56 -455
270 -512 524 -24 109 -70 145 -141 110z"/>
</g>
</svg>
