<?xml version="1.0" standalone="no"?>
<!DOCTYPE svg PUBLIC "-//W3C//DTD SVG 20010904//EN"
 "http://www.w3.org/TR/2001/REC-SVG-20010904/DTD/svg10.dtd">
<svg version="1.0" xmlns="http://www.w3.org/2000/svg"
 width="600.000000pt" height="600.000000pt" viewBox="0 0 600.000000 600.000000"
 preserveAspectRatio="xMidYMid meet">

<g transform="translate(0.000000,600.000000) scale(0.100000,-0.100000)"
fill="#ffaa00" stroke="red" stroke-width="5">
<path d="M2851 5514 c-203 -54 -378 -237 -422 -438 -11 -50 -17 -60 -41 -68
-63 -22 -198 -93 -278 -146 -196 -131 -362 -335 -441 -547 -39 -105 -59 -190
-84 -362 -88 -598 -215 -935 -509 -1353 -138 -196 -238 -416 -282 -618 -25
-114 -22 -314 5 -415 23 -86 75 -193 121 -249 40 -48 151 -121 241 -158 192
-80 502 -133 910 -156 l116 -6 17 -38 c94 -214 327 -403 581 -471 114 -31 326
-31 440 0 248 67 449 223 570 444 31 57 41 67 63 67 15 0 90 5 167 10 688 50
1015 170 1136 420 58 119 73 194 73 350 -1 146 -14 222 -64 372 -48 143 -115
268 -255 477 -287 428 -405 747 -489 1323 -32 215 -61 321 -126 454 -127 263
-354 469 -649 589 l-54 22 -18 72 c-49 194 -190 345 -383 413 -70 24 -96 28
-186 27 -58 0 -129 -7 -159 -15z m304 -243 c33 -15 75 -40 93 -55 31 -27 89
-113 81 -121 -2 -2 -27 2 -54 8 -28 6 -148 11 -270 11 -122 0 -242 -5 -270
-11 -27 -6 -52 -10 -54 -8 -8 8 62 105 92 128 117 89 256 106 382 48z m135
-406 c263 -51 473 -155 625 -309 166 -168 241 -337 285 -642 87 -606 236
-1007 525 -1413 128 -181 209 -343 256 -511 18 -68 23 -111 24 -210 0 -135
-14 -197 -62 -275 -96 -155 -414 -237 -1068 -276 -252 -15 -1479 -15 -1745 0
-574 33 -897 103 -1019 223 -49 47 -89 140 -103 236 -16 108 1 240 47 378 49
147 95 233 249 462 292 436 428 814 511 1415 36 269 122 456 279 613 168 168
422 284 711 323 101 14 384 6 485 -14z m250 -3905 c-36 -50 -131 -136 -192
-173 -105 -63 -204 -90 -338 -91 -133 -1 -220 21 -330 81 -60 33 -220 178
-220 199 0 5 244 9 549 9 l549 0 -18 -25z"/>
</g>
</svg>
